<svg width="84" height="30" viewBox="0 0 84 30" fill="none" xmlns="http://www.w3.org/2000/svg">
<g clip-path="url(#clip0_1612_330)">
<path d="M16.4453 13.7867V24.5014C16.4453 24.5761 16.4267 24.7067 16.3333 24.7441C16.3333 24.7441 14 26.4054 10.1547 26.4054C5.50667 26.4054 0 24.9494 0 15.3547C0 5.76006 4.816 3.78139 9.52 3.80006C13.5893 3.80006 15.232 4.71472 15.4933 4.88272C15.568 4.97606 15.6053 5.05072 15.6053 5.14406L14.8213 8.46672C14.8213 8.63472 14.6533 8.84006 14.448 8.78406C13.776 8.57872 12.768 8.16806 10.3973 8.16806C7.65333 8.16806 4.704 8.95206 4.704 15.1307C4.704 21.3094 7.504 22.0374 9.52 22.0374C11.2373 22.0374 11.8533 21.8321 11.8533 21.8321V17.5387H9.10933C8.904 17.5387 8.75467 17.3894 8.75467 17.2214V13.7867C8.75467 13.6187 8.904 13.4694 9.10933 13.4694H16.0907C16.296 13.4694 16.4453 13.6187 16.4453 13.7867ZM83.3653 18.1361C83.3653 24.5387 81.2933 26.3681 77.672 26.3681C74.6107 26.3681 72.968 24.8187 72.968 24.8187C72.968 24.8187 72.8933 25.6774 72.8 25.7894C72.744 25.9014 72.6507 25.9387 72.5387 25.9387H69.776C69.5893 25.9387 69.4213 25.7894 69.4213 25.6214L69.4587 4.88272C69.4587 4.71472 69.608 4.56539 69.776 4.56539H73.752C73.92 4.56539 74.0693 4.71472 74.0693 4.88272V11.9201C74.0693 11.9201 75.6 10.9307 77.84 10.9307L77.8213 10.8934C80.0613 10.8934 83.3653 11.7334 83.3653 18.1361ZM51.6693 4.60272C51.8373 4.60272 51.9867 4.75206 51.9867 4.92006V25.6587C51.9867 25.8267 51.8373 25.9761 51.6693 25.9761H47.6933C47.5253 25.9761 47.376 25.8267 47.376 25.6587L47.4133 16.7921H41.2347V25.6587C41.2347 25.8267 41.0853 25.9761 40.9173 25.9761H36.9413C36.792 25.9761 36.624 25.8267 36.624 25.6587V4.92006C36.624 4.75206 36.7733 4.60272 36.9413 4.60272H40.9173C41.0853 4.60272 41.2347 4.75206 41.2347 4.92006V12.5547H47.4133V4.92006C47.4133 4.75206 47.5627 4.60272 47.7307 4.60272H51.6693ZM67.088 11.3974C67.2933 11.3974 67.4427 11.5467 67.4427 11.7147L67.4053 25.6587C67.4053 25.8267 67.2933 25.9761 67.088 25.9761H64.5867C64.456 25.9761 64.3253 25.9014 64.288 25.8081C64.232 25.6961 64.1387 24.9681 64.1387 24.9681C64.1387 24.9681 62.0293 26.4054 59.4347 26.4054C56.28 26.4054 53.984 25.3787 53.984 21.2721V11.7334C53.984 11.5654 54.1333 11.4161 54.3013 11.4161H58.296C58.464 11.4161 58.6133 11.5654 58.6133 11.7334V20.6001C58.6133 22.0001 59.024 22.6347 60.424 22.6347C61.824 22.6347 62.8507 21.9067 62.8507 21.9067V11.7521C62.8507 11.5467 62.9627 11.3974 63.168 11.3974H67.088ZM34.5968 22.5433H34.6061C34.6823 22.559 34.7505 22.6012 34.7986 22.6623C34.8468 22.7235 34.8718 22.7996 34.8693 22.8774V25.6774C34.8693 25.8081 34.8133 25.9387 34.7013 25.9761C34.5147 26.0694 33.32 26.3867 32.3307 26.3867C30.1653 26.3867 26.992 25.9201 26.992 21.3654V15.2427H24.92C24.752 15.2427 24.6027 15.0934 24.6027 14.8881V12.3494C24.6027 12.2001 24.696 12.0694 24.8453 12.0321C24.976 12.0134 27.0107 11.5094 27.0107 11.5094V7.45872C27.0107 7.30939 27.104 7.21606 27.272 7.21606H31.304C31.472 7.21606 31.5653 7.30939 31.5653 7.45872V11.3974H34.5333C34.6827 11.3974 34.832 11.5467 34.832 11.7147V14.8881C34.832 15.0934 34.7013 15.2427 34.5333 15.2427H31.5653V21.0873C31.5653 21.9646 32.0693 22.6366 33.5253 22.6366C33.9864 22.6366 34.4232 22.5451 34.5968 22.5433ZM22.848 11.3787C23.016 11.3787 23.1653 11.5281 23.1653 11.6961V25.4534C23.1653 25.7894 23.072 25.9574 22.6987 25.9574H19.1147C18.7973 25.9574 18.5547 25.8267 18.5547 25.4534V11.7521C18.5547 11.5467 18.704 11.3787 18.872 11.3787H22.848ZM78.8293 18.4347C78.8293 15.0561 77.4667 14.6081 76.0293 14.7574C74.9093 14.8321 74.0133 15.3921 74.0133 15.3921V21.9627C74.0133 21.9627 74.928 22.5974 76.2907 22.6347C78.2133 22.6907 78.8293 22.0001 78.8293 18.4347ZM20.888 5.06939C22.288 5.06939 23.4267 6.20806 23.4267 7.64539C23.4267 9.08272 22.288 10.2214 20.888 10.2214C19.4507 10.2214 18.312 9.08272 18.312 7.64539C18.312 6.20806 19.4507 5.06939 20.888 5.06939ZM34.5893 22.5227V22.5246L34.608 22.5433H34.6061L34.5968 22.5414V22.5433C34.58 22.5414 34.5688 22.5227 34.552 22.5227H34.5893Z" fill="black"/>
</g>
<defs>
<clipPath id="clip0_1612_330">
<rect width="84" height="30" fill="white"/>
</clipPath>
</defs>
</svg>
