<svg width="80" height="80" viewBox="0 0 80 80" fill="none" xmlns="http://www.w3.org/2000/svg">
<g clip-path="url(#clip0_1612_290)">
<mask id="mask0_1612_290" style="mask-type:alpha" maskUnits="userSpaceOnUse" x="0" y="0" width="80" height="80">
<path d="M40 80C62.0914 80 80 62.0914 80 40C80 17.9086 62.0914 0 40 0C17.9086 0 0 17.9086 0 40C0 62.0914 17.9086 80 40 80Z" fill="black"/>
</mask>
<g mask="url(#mask0_1612_290)">
<path d="M40 80C62.0914 80 80 62.0914 80 40C80 17.9086 62.0914 0 40 0C17.9086 0 0 17.9086 0 40C0 62.0914 17.9086 80 40 80Z" fill="black"/>
<path d="M66.448 70.0089L30.7298 24H24V55.9867H29.3838V30.8372L62.2218 73.2644C63.7036 72.2729 65.1151 71.1844 66.448 70.0089Z" fill="url(#paint0_linear_1612_290)"/>
<path d="M56.4447 24H51.1113V56H56.4447V24Z" fill="url(#paint1_linear_1612_290)"/>
</g>
</g>
<defs>
<linearGradient id="paint0_linear_1612_290" x1="48.4444" y1="51.7778" x2="64.2222" y2="71.3333" gradientUnits="userSpaceOnUse">
<stop stop-color="white"/>
<stop offset="1" stop-color="white" stop-opacity="0"/>
</linearGradient>
<linearGradient id="paint1_linear_1612_290" x1="53.778" y1="24" x2="53.6887" y2="47.5" gradientUnits="userSpaceOnUse">
<stop stop-color="white"/>
<stop offset="1" stop-color="white" stop-opacity="0"/>
</linearGradient>
<clipPath id="clip0_1612_290">
<rect width="80" height="80" fill="white"/>
</clipPath>
</defs>
</svg>
