<svg width="630" height="197" viewBox="0 0 630 197" fill="none" xmlns="http://www.w3.org/2000/svg">
<rect width="630" height="197" fill="white"/>
<g clip-path="url(#clip0_1655_493)">
<path d="M410.328 42.0469H507.624V60.0051H469.027V154.481H449.728V60.0051H410.328V42.0469Z" fill="black"/>
<path d="M250.314 42.0469V60.0051H172.326V88.8942H235.044V106.852H172.326V136.522H250.314V154.481H153.028V60.0051H153.02V42.0469H250.314Z" fill="black"/>
<path d="M298.896 42.0938H273.641L364.1 154.528H389.429L344.194 98.3493L389.356 42.1795L364.1 42.2186L331.549 82.6456L298.896 42.0938Z" fill="black"/>
<path d="M324.812 122.406L312.164 106.681L273.568 154.613H298.896L324.812 122.406Z" fill="black"/>
<path fill-rule="evenodd" clip-rule="evenodd" d="M153.704 154.481L63.1227 42H39V154.434H58.2982V66.0326L129.46 154.481H153.704Z" fill="black"/>
<path d="M511.962 153.794C510.548 153.794 509.346 153.304 508.339 152.325C507.333 151.346 506.835 150.16 506.848 148.756C506.835 147.39 507.333 146.218 508.339 145.238C509.346 144.259 510.548 143.769 511.962 143.769C513.321 143.769 514.511 144.259 515.517 145.238C516.538 146.218 517.047 147.39 517.061 148.756C517.047 149.684 516.812 150.534 516.341 151.294C515.858 152.067 515.244 152.673 514.471 153.111C513.713 153.562 512.876 153.794 511.962 153.794Z" fill="black"/>
<path d="M544.9 106.429H553.452V139.376C553.439 142.404 552.784 144.994 551.504 147.171C550.209 149.349 548.417 151.011 546.116 152.183C543.828 153.343 541.147 153.936 538.101 153.936C535.315 153.936 532.818 153.433 530.595 152.454C528.372 151.475 526.607 150.006 525.313 148.073C524.004 146.14 523.363 143.731 523.363 140.845H531.929C531.942 142.107 532.23 143.202 532.778 144.117C533.327 145.032 534.086 145.728 535.054 146.217C536.033 146.707 537.159 146.952 538.427 146.952C539.8 146.952 540.977 146.668 541.931 146.089C542.885 145.522 543.618 144.671 544.129 143.537C544.625 142.417 544.887 141.025 544.9 139.376V106.429Z" fill="black"/>
<path d="M588.638 119.314C588.43 117.317 587.514 115.758 585.919 114.649C584.31 113.528 582.232 112.974 579.681 112.974C577.891 112.974 576.348 113.245 575.067 113.773C573.785 114.314 572.791 115.036 572.111 115.951C571.432 116.866 571.091 117.909 571.064 119.082C571.064 120.061 571.3 120.912 571.758 121.62C572.216 122.342 572.829 122.947 573.628 123.437C574.412 123.94 575.288 124.352 576.243 124.687C577.21 125.022 578.179 125.305 579.145 125.537L583.604 126.632C585.396 127.045 587.136 127.599 588.796 128.308C590.456 129.003 591.96 129.892 593.28 130.962C594.601 132.031 595.648 133.32 596.419 134.827C597.19 136.335 597.583 138.1 597.583 140.136C597.583 142.88 596.877 145.29 595.451 147.377C594.026 149.452 591.973 151.075 589.279 152.248C586.598 153.407 583.356 154 579.538 154C575.851 154 572.634 153.433 569.927 152.299C567.208 151.178 565.089 149.529 563.559 147.364C562.029 145.2 561.206 142.558 561.088 139.453H569.562C569.679 141.076 570.202 142.429 571.091 143.525C571.993 144.607 573.17 145.406 574.609 145.947C576.06 146.475 577.681 146.746 579.473 146.746C581.343 146.746 582.99 146.462 584.415 145.908C585.827 145.354 586.939 144.581 587.737 143.576C588.548 142.584 588.953 141.412 588.966 140.071C588.953 138.847 588.586 137.829 587.88 137.03C587.161 136.232 586.167 135.562 584.899 135.021C583.618 134.479 582.127 133.99 580.427 133.565L575.014 132.199C571.104 131.207 568.005 129.699 565.742 127.676C563.468 125.653 562.343 122.973 562.343 119.61C562.343 116.853 563.101 114.431 564.632 112.356C566.148 110.282 568.228 108.671 570.856 107.524C573.497 106.365 576.479 105.797 579.799 105.797C583.173 105.797 586.128 106.365 588.678 107.524C591.227 108.671 593.229 110.269 594.679 112.304C596.131 114.34 596.89 116.672 596.929 119.314H588.638Z" fill="black"/>
</g>
<defs>
<clipPath id="clip0_1655_493">
<rect width="558.582" height="112" fill="white" transform="translate(39 42)"/>
</clipPath>
</defs>
</svg>
