<svg width="512" height="125" viewBox="0 0 512 125" fill="none" xmlns="http://www.w3.org/2000/svg">
<g clip-path="url(#clip0_1612_319)">
<path d="M63.8178 11.3382H37.254V93.621H26.4018V11.3382H0V1.61974H63.8178V11.3382ZM113.868 27.8595L83.5786 104.149C78.2335 117.755 70.6207 124.558 60.9022 124.558C58.1487 124.558 55.881 124.234 54.0993 123.748V114.354C56.367 115.164 58.4726 115.488 60.2543 115.488C65.5995 115.488 69.4869 112.248 72.2404 105.931L77.4236 93.459L51.8317 27.8595H63.4938L81.311 78.3954C81.4729 79.0433 81.9589 80.6631 82.6068 83.4166H82.9307C83.0927 82.4448 83.5786 80.8251 84.2265 78.5574L102.854 27.8595H113.868ZM131.037 84.0645H130.713V123.748H120.185V27.8595H130.713V39.3597H131.037C136.22 30.6131 143.833 26.2398 153.713 26.2398C162.136 26.2398 168.777 29.1553 173.474 34.9864C178.171 40.8175 180.601 48.7542 180.601 58.6346C180.601 69.6488 177.848 78.3954 172.502 85.0364C167.157 91.6773 159.868 94.9168 150.636 94.9168C142.375 95.2407 135.734 91.5153 131.037 84.0645ZM130.875 57.6628V66.8953C130.875 72.4024 132.657 76.9377 136.22 80.6631C139.784 84.3885 144.157 86.3322 149.664 86.3322C155.981 86.3322 161.002 83.9026 164.728 79.0433C168.291 74.1841 170.073 67.3812 170.073 58.6346C170.073 51.3458 168.453 45.5147 165.052 41.4654C161.65 37.254 157.115 35.3103 151.284 35.3103C145.129 35.3103 140.27 37.416 136.544 41.6273C132.657 45.8387 130.875 51.1838 130.875 57.6628ZM245.067 63.3319H198.742C198.904 70.6207 200.848 76.2898 204.573 80.3391C208.299 84.3885 213.482 86.3322 220.123 86.3322C227.574 86.3322 234.376 83.9026 240.531 79.0433V88.9238C234.7 93.1351 227.088 95.2407 217.693 95.2407C208.461 95.2407 201.172 92.3252 195.827 86.3322C190.481 80.3391 187.89 71.9165 187.89 61.2262C187.89 51.0218 190.805 42.5992 196.637 36.2822C202.468 29.8032 209.594 26.5637 218.179 26.5637C226.764 26.5637 233.405 29.3173 238.102 34.9864C242.799 40.4935 245.229 48.2683 245.229 58.1487L245.067 63.3319ZM234.214 54.4233C234.214 48.2683 232.757 43.571 229.841 40.1696C226.926 36.7681 222.876 35.1484 217.855 35.1484C212.834 35.1484 208.623 36.9301 205.221 40.4935C201.82 44.0569 199.552 48.7542 198.742 54.4233H234.214ZM250.25 90.3815V83.0927C256.891 87.304 263.532 89.4097 270.335 89.4097C277.462 89.4097 282.969 87.9519 286.694 84.8744C290.419 81.7969 292.201 77.7475 292.201 72.4024C292.201 67.7052 290.905 63.9798 288.476 61.0642C286.046 58.3107 280.539 54.4233 272.278 49.5641C262.884 44.0569 257.053 39.5217 254.623 35.9582C252.194 32.2328 250.898 28.0215 250.898 23.3243C250.898 16.8453 253.489 11.3382 258.511 6.80291C263.532 2.26764 270.335 0 278.757 0C284.264 0 289.772 0.971844 295.117 2.75356V9.3945C289.772 6.96488 283.941 5.66909 277.786 5.66909C271.469 5.66909 266.609 7.28883 262.884 10.3663C259.159 13.6058 257.377 17.4932 257.377 22.3524C257.377 27.0497 258.673 30.7751 261.102 33.5286C263.532 36.2822 269.039 40.1696 277.3 44.8668C285.884 49.726 291.553 54.0993 294.469 57.8247C297.384 61.5501 298.68 65.9234 298.68 70.9446C298.68 78.0715 296.251 83.7406 291.391 88.2759C286.532 92.8111 279.567 94.9168 270.659 94.9168C267.419 94.9168 263.856 94.4309 259.644 93.459C255.433 92.4872 252.356 91.6773 250.25 90.3815ZM353.427 90.7055C348.568 93.621 342.737 95.2407 335.934 95.2407C327.026 95.2407 319.737 92.1632 314.23 86.0082C308.723 79.8532 305.969 71.9165 305.969 61.8741C305.969 51.5078 309.046 42.9231 315.202 36.2822C321.357 29.6413 329.293 26.2398 339.012 26.2398C344.033 26.2398 348.892 27.2116 353.589 29.3173V35.9582C348.892 33.0427 343.709 31.5849 338.202 31.5849C330.427 31.5849 324.272 34.3385 319.413 39.8456C314.554 45.3527 312.286 52.6416 312.286 61.3882C312.286 69.9728 314.554 76.7757 318.927 81.9589C323.3 87.142 329.131 89.7336 336.258 89.7336C342.899 89.7336 348.568 87.9519 353.427 84.5505V90.7055ZM392.625 34.0146C390.681 32.5568 388.414 31.9089 385.66 31.9089C380.477 31.9089 376.104 34.6624 372.702 40.0076C369.139 45.3527 367.519 52.9655 367.519 62.8459V93.783H361.688V27.8595H367.519V42.4372H367.843C369.301 37.416 371.73 33.5286 374.97 30.7751C378.209 28.0215 381.935 26.5637 386.308 26.5637C388.738 26.5637 391.005 26.8877 392.787 27.6976V34.0146H392.625ZM402.02 11.3382C400.724 11.3382 399.59 10.8523 398.618 9.88042C397.646 8.90857 397.16 7.77476 397.16 6.31699C397.16 4.85922 397.646 3.7254 398.618 2.91553C399.59 2.10566 400.724 1.61974 402.02 1.61974C403.315 1.61974 404.449 2.10566 405.583 2.91553C406.555 3.7254 407.041 4.85922 407.041 6.31699C407.041 7.61278 406.555 8.90857 405.583 9.88042C404.449 10.8523 403.315 11.3382 402.02 11.3382ZM399.104 93.621V27.8595H404.935V93.621H399.104ZM425.182 81.9589H424.858V123.91H419.027V27.8595H424.858V41.4654H425.182C427.612 36.6061 430.851 32.8807 435.224 30.2891C439.598 27.6976 444.457 26.4018 449.64 26.4018C458.063 26.4018 464.542 29.3173 469.239 34.9864C473.936 40.8175 476.204 48.5922 476.204 58.4726C476.204 69.4869 473.45 78.3954 468.105 85.1984C462.76 92.0013 455.633 95.4027 446.886 95.4027C437.168 95.2407 429.879 90.8675 425.182 81.9589ZM424.858 57.5008V65.7615C424.858 72.4024 426.964 78.0715 431.013 82.7687C435.224 87.466 440.569 89.8956 447.372 89.8956C454.013 89.8956 459.52 86.9801 463.732 81.311C467.943 75.4799 470.049 68.0291 470.049 58.6346C470.049 50.3739 468.105 43.895 464.218 39.0357C460.33 34.1765 455.309 31.7469 448.83 31.7469C441.217 31.7469 435.224 34.3385 431.013 39.5217C426.802 44.7048 424.858 50.5359 424.858 57.5008ZM512 92.6492C508.922 94.1069 506.007 94.7548 503.415 94.7548C493.697 94.7548 488.838 88.9238 488.838 77.2616V33.3667H477.014V28.0215H488.838V10.8523L491.753 9.88042L494.669 8.90857V28.0215H512V33.3667H494.669V76.7757C494.669 81.311 495.317 84.5505 496.774 86.6561C498.232 88.7618 500.662 89.7336 504.063 89.7336C506.493 89.7336 509.084 88.9238 512 87.304V92.6492Z" fill="black"/>
</g>
<defs>
<clipPath id="clip0_1612_319">
<rect width="512" height="125" fill="white"/>
</clipPath>
</defs>
</svg>
