<svg width="284" height="65" viewBox="0 0 284 65" fill="none" xmlns="http://www.w3.org/2000/svg">
<g clip-path="url(#clip0_1612_328)">
<path d="M141.681 16.25C130.641 16.25 122.681 23.45 122.681 34.25C122.681 45.05 131.641 52.25 142.681 52.25C149.351 52.25 155.231 49.61 158.871 45.16L151.221 40.74C149.201 42.95 146.131 44.24 142.681 44.24C137.891 44.24 133.821 41.74 132.311 37.74H160.331C160.551 36.62 160.681 35.46 160.681 34.24C160.681 23.45 152.721 16.25 141.681 16.25ZM132.221 30.75C133.471 26.76 136.891 24.25 141.671 24.25C146.461 24.25 149.881 26.76 151.121 30.75H132.221ZM249.361 16.25C238.321 16.25 230.361 23.45 230.361 34.25C230.361 45.05 239.321 52.25 250.361 52.25C257.031 52.25 262.911 49.61 266.551 45.16L258.901 40.74C256.881 42.95 253.811 44.24 250.361 44.24C245.571 44.24 241.501 41.74 239.991 37.74H268.011C268.231 36.62 268.361 35.46 268.361 34.24C268.361 23.45 260.401 16.25 249.361 16.25ZM239.911 30.75C241.161 26.76 244.581 24.25 249.361 24.25C254.151 24.25 257.571 26.76 258.811 30.75H239.911ZM200.881 34.25C200.881 40.25 204.801 44.25 210.881 44.25C215.001 44.25 218.091 42.38 219.681 39.33L227.361 43.76C224.181 49.06 218.221 52.25 210.881 52.25C199.831 52.25 191.881 45.05 191.881 34.25C191.881 23.45 199.841 16.25 210.881 16.25C218.221 16.25 224.171 19.44 227.361 24.74L219.681 29.17C218.091 26.12 215.001 24.25 210.881 24.25C204.811 24.25 200.881 28.25 200.881 34.25ZM283.361 5.25V51.25H274.361V5.25H283.361ZM37.5906 0.25L74.5406 64.25H0.640625L37.5906 0.25ZM129.971 5.25L102.261 53.25L74.5506 5.25H84.9406L102.261 35.25L119.581 5.25H129.971ZM188.881 17.25V26.94C187.881 26.65 186.821 26.45 185.681 26.45C179.871 26.45 175.681 30.45 175.681 36.45V51.25H166.681V17.25H175.681V26.45C175.681 21.37 181.591 17.25 188.881 17.25Z" fill="black"/>
</g>
<defs>
<clipPath id="clip0_1612_328">
<rect width="284" height="65" fill="white"/>
</clipPath>
</defs>
</svg>
