<svg width="512" height="117" viewBox="0 0 512 117" fill="none" xmlns="http://www.w3.org/2000/svg">
<g clip-path="url(#clip0_1612_322)">
<path d="M296.95 45.7262H276.795V47.8643C283.099 47.8643 284.113 49.2154 284.113 57.2102V71.6229C284.113 79.6167 283.1 81.0807 276.795 81.0807C271.955 80.4056 268.688 77.8153 264.185 72.8612L259.006 67.2321C265.986 65.9919 269.701 61.602 269.701 56.647C269.701 50.4556 264.41 45.7262 254.501 45.7262H234.685V47.8643C240.989 47.8643 242.003 49.2154 242.003 57.2102V71.6229C242.003 79.6167 240.989 81.0807 234.685 81.0807V83.2197H257.091V81.0807C250.786 81.0807 249.773 79.6167 249.773 71.6229V67.5705H251.686L264.185 83.2197H296.95C313.05 83.2197 320.031 74.6636 320.031 64.4161C320.031 54.1704 313.051 45.7262 296.95 45.7262ZM249.774 64.0776V49.1045H254.389C259.455 49.1045 261.708 52.5946 261.708 56.6479C261.708 60.5894 259.455 64.0785 254.389 64.0785H249.774V64.0776ZM297.288 79.7296H296.499C292.447 79.7296 291.884 78.7169 291.884 73.5372V49.1045H297.288C308.998 49.1045 311.136 57.6605 311.136 64.3042C311.136 71.1716 308.997 79.7296 297.288 79.7296ZM171.973 68.2456L179.742 45.2749C181.995 38.6322 180.981 36.7189 173.775 36.7189V34.4661H194.943V36.7189C187.849 36.7189 186.161 38.4075 183.346 46.627L170.509 85.134H169.046L157.56 49.8914L145.851 85.134H144.387L131.89 46.627C129.188 38.4075 127.386 36.7189 120.855 36.7189V34.4661H145.851V36.7189C139.208 36.7189 137.405 38.2947 139.771 45.2749L147.314 68.2456L158.686 34.4661H160.826L171.973 68.2456ZM210.253 84.6827C197.869 84.6827 187.735 75.5634 187.735 64.4151C187.735 53.3816 197.869 44.2604 210.253 44.2604C222.639 44.2604 232.772 53.3816 232.772 64.4151C232.772 75.5634 222.639 84.6827 210.253 84.6827ZM210.253 47.7534C199.896 47.7534 196.292 57.0973 196.292 64.4161C196.292 71.8486 199.896 81.0807 210.253 81.0807C220.725 81.0807 224.328 71.8486 224.328 64.4161C224.328 57.0973 220.725 47.7534 210.253 47.7534Z" fill="black"/>
<path d="M347.841 80.9678V83.2196H322.057V80.9678C329.601 80.9678 330.952 79.0544 330.952 67.7933V49.7795C330.952 38.5184 329.601 36.7179 322.057 36.7179V34.4651H345.363C356.96 34.4651 363.38 40.4327 363.38 48.4284C363.38 56.1975 356.96 62.277 345.363 62.277H338.945V67.7924C338.945 79.0544 340.296 80.9678 347.841 80.9678ZM345.363 38.5184H338.945V58.1109H345.363C351.669 58.1109 354.596 53.72 354.596 48.4284C354.596 43.024 351.669 38.5184 345.363 38.5184ZM440.729 72.6365L440.166 74.6626C439.153 78.3784 437.913 79.7295 429.92 79.7295H428.343C422.489 79.7295 421.475 78.3784 421.475 70.3846V65.2058C430.258 65.2058 430.934 65.9928 430.934 71.8485H433.073V55.0711H430.934C430.934 60.9259 430.258 61.7138 421.475 61.7138V49.1044H427.667C435.662 49.1044 436.9 50.4555 437.913 54.1713L438.477 56.3094H440.278L439.491 45.7262H406.388V47.8643C412.692 47.8643 413.706 49.2154 413.706 57.2101V71.6229C413.706 78.9359 412.845 80.7782 407.874 81.0408C403.15 80.3193 399.906 77.7422 395.468 72.8612L390.288 67.232C397.269 65.9919 400.985 61.6019 400.985 56.6469C400.985 50.4556 395.693 45.7262 385.785 45.7262H365.969V47.8643C372.273 47.8643 373.287 49.2154 373.287 57.2101V71.6229C373.287 79.6167 372.274 81.0806 365.969 81.0806V83.2196H388.376V81.0806C382.071 81.0806 381.057 79.6167 381.057 71.6229V67.5705H382.971L395.469 83.2196H441.744L442.42 72.6374H440.729V72.6365ZM381.056 64.0775V49.1044H385.671C390.738 49.1044 392.991 52.5946 392.991 56.6479C392.991 60.5893 390.738 64.0785 385.671 64.0785H381.056V64.0775ZM463.585 84.6826C459.082 84.6826 455.14 82.3189 453.452 80.854C452.888 81.4182 451.876 83.1068 451.651 84.6826H449.511V69.1463H451.763C452.665 76.5769 457.842 80.9678 464.486 80.9678C468.089 80.9678 471.017 78.9416 471.017 75.5643C471.017 72.6374 468.427 70.3846 463.811 68.2456L457.393 65.2058C452.888 63.0649 449.511 59.3492 449.511 54.396C449.511 48.9916 454.578 44.376 461.559 44.376C465.275 44.376 468.427 45.7272 470.342 47.303C470.904 46.8526 471.467 45.6134 471.806 44.2613H473.945V57.5486H471.58C470.791 52.2561 467.864 47.8652 461.898 47.8652C458.745 47.8652 455.816 49.6667 455.816 52.4827C455.816 55.4096 458.181 56.9854 463.586 59.4629L469.778 62.5027C475.183 65.0921 477.321 69.2601 477.321 72.6374C477.321 79.7295 471.129 84.6826 463.585 84.6826ZM498.264 84.6826C493.759 84.6826 489.818 82.3189 488.13 80.854C487.567 81.4182 486.554 83.1068 486.329 84.6826H484.189V69.1463H486.441C487.342 76.5769 492.521 80.9678 499.164 80.9678C502.767 80.9678 505.695 78.9416 505.695 75.5643C505.695 72.6374 503.106 70.3846 498.488 68.2456L492.07 65.2058C487.567 63.0649 484.188 59.3492 484.188 54.396C484.188 48.9916 489.255 44.376 496.237 44.376C499.952 44.376 503.104 45.7272 505.019 47.303C505.581 46.8526 506.145 45.6134 506.481 44.2613H508.621V57.5486H506.258C505.469 52.2561 502.542 47.8652 496.575 47.8652C493.422 47.8652 490.494 49.6667 490.494 52.4827C490.494 55.4096 492.858 56.9854 498.264 59.4629L504.455 62.5027C509.86 65.0921 511.999 69.2601 511.999 72.6374C511.999 79.7295 505.806 84.6826 498.264 84.6826Z" fill="black"/>
<path d="M8.25645 58.0834C8.25645 77.8067 19.7186 94.8515 36.3396 102.929L12.5705 37.8044C9.80571 44.0015 8.25645 50.8594 8.25645 58.0834ZM91.7235 55.5689C91.7235 49.4107 89.5115 45.1459 87.6143 41.8265C85.0884 37.7219 82.7209 34.246 82.7209 30.1415C82.7209 25.561 86.1949 21.2972 91.0883 21.2972C91.3092 21.2972 91.5187 21.3247 91.734 21.3371C82.8688 13.2152 71.0578 8.25645 58.0853 8.25645C40.6773 8.25645 25.3619 17.188 16.4522 30.7161C17.6213 30.7512 18.723 30.7758 19.6588 30.7758C24.8708 30.7758 32.9386 30.1434 32.9386 30.1434C35.6246 29.9851 35.9413 33.9303 33.2581 34.2479C33.2581 34.2479 30.5587 34.5656 27.555 34.723L45.7006 88.6961L56.6052 55.9917L48.8418 34.7211C46.1585 34.5637 43.6166 34.246 43.6166 34.246C40.9314 34.0887 41.2462 29.9832 43.9313 30.1415C43.9313 30.1415 52.1603 30.7739 57.0565 30.7739C62.2675 30.7739 70.3362 30.1415 70.3362 30.1415C73.0242 29.9832 73.34 33.9284 70.6558 34.246C70.6558 34.246 67.9507 34.5637 64.9527 34.7211L82.9598 88.2856L87.93 71.6769C90.0842 64.7848 91.7235 59.8346 91.7235 55.5689ZM58.9594 62.442L44.0091 105.885C48.473 107.197 53.1938 107.915 58.0853 107.915C63.8879 107.915 69.4526 106.912 74.6323 105.09C74.4986 104.877 74.3772 104.651 74.2777 104.404L58.9594 62.442ZM101.808 34.1768C102.022 35.764 102.144 37.4678 102.144 39.3006C102.144 44.3571 101.199 50.0412 98.3549 57.1485L83.1343 101.155C97.9481 92.5162 107.912 76.4669 107.912 58.0843C107.913 49.4211 105.7 41.2746 101.808 34.1768ZM58.0853 0C26.0579 0 0 26.056 0 58.0834C0 90.1145 26.0579 116.17 58.0853 116.17C90.1117 116.17 116.173 90.1145 116.173 58.0834C116.172 26.056 90.1117 0 58.0853 0ZM58.0853 113.507C27.5265 113.507 2.66334 88.644 2.66334 58.0834C2.66334 27.5246 27.5256 2.66334 58.0853 2.66334C88.643 2.66334 113.504 27.5246 113.504 58.0834C113.504 88.644 88.643 113.507 58.0853 113.507Z" fill="black"/>
</g>
<defs>
<clipPath id="clip0_1612_322">
<rect width="512" height="117" fill="white"/>
</clipPath>
</defs>
</svg>
