<svg width="65" height="64" viewBox="0 0 65 64" fill="none" xmlns="http://www.w3.org/2000/svg">
<path d="M0.833984 0H18.6116V63.9995H0.833984V0ZM16.6723 1.93938H2.77336V62.0602H16.7369L16.6723 1.93938Z" fill="#0ECAD4"/>
<path d="M47.043 22.4449H64.8335V63.9994H47.043V22.4449ZM62.8942 24.3843H48.9823V62.06H62.8942V24.3843Z" fill="#0ECAD4"/>
<path d="M23.2793 0H64.8337V16.4589H23.2793V0ZM62.8944 1.93938H25.2187V14.5066H62.8944V1.93938Z" fill="#0ECAD4"/>
<path d="M41.0957 25.044V24.3976H40.4493H25.2187H24.5722V25.044V38.9559V39.6023H25.2187H40.4493H41.0957V38.9559V25.044ZM23.9258 23.7511H41.7422V40.2488H23.9258V23.7511Z" fill="#7E5CEF" stroke="#7E5CEF" stroke-width="1.29292"/>
<path d="M24.1719 48.7689V48.1224H41.6004V48.7689H24.1719Z" fill="#7E5CEF" stroke="#7E5CEF" stroke-width="1.29292"/>
<path opacity="0.55" d="M24.1719 55.9447V55.2982H41.6004V55.9447H24.1719Z" fill="#7E5CEF" stroke="#7E5CEF" stroke-width="1.29292"/>
<path opacity="0.25" d="M24.1719 63.0687V62.4222H41.6004V63.0687H24.1719Z" fill="#7E5CEF" stroke="#7E5CEF" stroke-width="1.29292"/>
</svg>
