<svg width="63" height="57" viewBox="0 0 63 57" fill="none" xmlns="http://www.w3.org/2000/svg">
<g clip-path="url(#clip0_6620_29104)">
<path d="M6.4332 36.0646L5.3332 34.9646C5.0332 35.4646 4.7332 35.8646 4.5332 36.3646L5.7332 37.4646L6.4332 36.0646Z" fill="#0ECAD4"/>
<path d="M35.403 21.8253C39.0895 25.4981 39.0895 31.5725 35.403 35.2454C31.7164 38.9182 25.6194 38.9182 21.9328 35.2454C18.2463 31.5725 18.2463 25.4981 21.9328 21.8253C23.7761 19.9888 26.1866 19 28.7388 19C31.291 19 33.7015 19.9888 35.403 21.8253ZM23.4925 33.8327C26.4701 36.658 31.1492 36.658 33.9851 33.8327C36.8209 30.8662 36.8209 26.2045 33.9851 23.3792C31.0075 20.5539 26.3283 20.5539 23.4925 23.3792C22.0746 24.7918 21.3657 26.6283 21.3657 28.6059C21.2239 30.5836 22.0746 32.4201 23.4925 33.8327Z" fill="#7E5CEF"/>
<g opacity="0.55">
<path opacity="0.55" d="M8.13281 33.4649L7.03281 32.2649C6.73281 32.6649 6.43281 33.1649 6.13281 33.5649L7.23281 34.7649C7.53281 34.3649 7.83281 33.9649 8.13281 33.4649Z" fill="#0ECAD4"/>
</g>
<g opacity="0.25">
<path opacity="0.25" d="M9.83359 30.9648C9.53359 30.5648 9.13359 30.1648 8.83359 29.6648C8.53359 30.0648 8.23359 30.5648 7.93359 30.9648L8.93359 32.1648C9.23359 31.7648 9.53359 31.3648 9.83359 30.9648Z" fill="#0ECAD4"/>
</g>
<path d="M12.6328 27.2649C14.8328 24.5649 17.1328 21.9649 19.6328 19.5649C22.1328 17.1649 24.6328 14.8649 27.4328 12.6649L28.0328 12.1649L28.6328 11.6649C29.0328 11.3649 29.4328 11.0649 29.9328 10.7649C30.1328 10.5649 30.3328 10.4649 30.5328 10.2649C30.7328 10.0649 30.9328 9.96491 31.1328 9.86491C34.1328 7.76491 37.2328 5.86491 40.5328 4.26491C43.3328 2.86491 46.4328 1.96491 49.6328 1.86491C51.2328 1.76491 52.8328 2.26491 54.0328 3.36491C56.3328 5.66491 55.9328 10.5649 52.9328 16.8649C51.3328 20.1649 49.4328 23.2649 47.2328 26.2649L48.2328 27.4649C50.5328 24.3649 52.6328 20.9649 54.3328 17.4649C57.6328 10.4649 57.9328 5.06491 55.1328 2.26491C53.6328 0.864912 51.7328 0.164912 49.7328 0.364912C46.3328 0.564912 43.0328 1.36491 39.9328 2.96491C36.4328 4.66491 33.0328 6.66491 29.8328 8.96491L29.2328 9.36491L28.6328 9.86491L27.3328 10.8649L26.7328 11.3649L26.1328 11.8649C20.8328 16.0649 16.0328 20.8649 11.6328 26.1649L12.6328 27.2649Z" fill="#0ECAD4"/>
<path d="M45.932 26.7648L45.432 26.1648C43.332 23.4648 41.032 20.9648 38.632 18.5648C36.232 16.1648 33.732 13.8648 31.132 11.6648C30.732 11.9648 30.332 12.2648 29.932 12.6648C32.632 14.8648 35.232 17.1648 37.632 19.6648C40.032 22.1648 42.432 24.7648 44.532 27.4648L45.032 28.0648L45.532 28.6648C45.832 29.0648 46.132 29.4648 46.432 29.8648L46.932 30.4648C47.132 30.6648 47.232 30.8648 47.432 31.1648C49.532 34.1648 51.432 37.2648 53.032 40.5648C55.932 46.8648 56.232 51.7648 54.032 54.0648C52.832 55.0648 51.332 55.6648 49.732 55.5648C45.132 55.5648 38.332 52.5648 31.132 47.3648C30.732 47.6648 30.332 48.0648 29.832 48.3648C37.432 53.9648 44.632 57.0648 49.632 57.0648C51.632 57.1648 53.532 56.4648 54.932 55.1648C57.732 52.3648 57.532 47.0648 54.332 39.9648C52.632 36.4648 50.632 33.0648 48.332 29.8648C48.132 29.6648 48.032 29.4648 47.832 29.2648L47.432 28.5648L46.432 27.3648L45.932 26.7648Z" fill="#0ECAD4"/>
<g opacity="0.55">
<path opacity="0.55" d="M23.632 8.0647L24.832 6.9647C24.432 6.6647 23.932 6.3647 23.532 6.0647L22.332 7.1647C22.732 7.4647 23.232 7.7647 23.632 8.0647Z" fill="#0ECAD4"/>
</g>
<g opacity="0.25">
<path opacity="0.25" d="M26.1316 9.76475C26.5316 9.46475 26.9316 9.06475 27.4316 8.76475L26.1316 7.86475L24.9316 8.86475L26.1316 9.76475Z" fill="#0ECAD4"/>
</g>
<path d="M21.0328 6.3646L22.1328 5.2646C21.6328 4.9646 21.2328 4.6646 20.7328 4.4646L19.6328 5.6646L21.0328 6.3646Z" fill="#0ECAD4"/>
<path d="M27.3336 44.4648C24.6336 42.2648 22.0336 39.9648 19.6336 37.4648C17.2336 34.9648 14.9336 32.3647 12.7336 29.6648L12.2336 29.0648L11.7336 28.4648C11.4336 28.0648 11.1336 27.6648 10.8336 27.1648L10.3336 26.5648L9.93365 25.9648C7.83365 22.9648 5.93365 19.8647 4.33365 16.5648C2.93365 13.7648 2.03365 10.6648 1.93365 7.46475C1.73365 5.76475 2.23365 4.16475 3.33365 2.96475C5.93365 0.364751 11.5336 1.36475 18.2336 4.76475L19.2336 3.56475C11.7336 -0.335249 5.43365 -1.23525 2.23365 1.86475C0.933643 3.36475 0.233643 5.36475 0.333643 7.36475C0.533643 10.7648 1.43365 14.0648 2.93365 17.0648C4.63365 20.5648 6.63365 23.9648 8.93365 27.1648L9.33364 27.7648L9.83364 28.3647C10.1336 28.7647 10.4336 29.1648 10.8336 29.6648L11.3336 30.2648L11.8336 30.8647C13.9336 33.5648 16.2336 36.0648 18.6336 38.4648C21.0336 40.8648 23.5336 43.1647 26.1336 45.3647L27.3336 44.4648Z" fill="#0ECAD4"/>
<path d="M29.932 12.5648C32.632 14.7648 35.232 17.0648 37.632 19.5648C40.032 22.0648 42.432 24.6648 44.532 27.3648L45.032 27.9648C45.232 28.1648 45.332 28.3648 45.532 28.5648C45.832 28.9648 46.232 29.3648 46.532 29.8648L47.032 30.4648L47.432 31.0648C49.532 34.0648 51.432 37.1648 53.032 40.4648C54.432 43.2648 55.332 46.3648 55.432 49.5648C55.532 51.1648 55.032 52.7648 53.932 53.9648C51.632 56.2648 46.732 55.8648 40.432 52.8648C37.132 51.2648 34.032 49.3648 31.032 47.1648L29.832 48.1648C32.932 50.4648 36.332 52.5648 39.832 54.2648C46.832 57.5648 52.232 57.8648 54.932 55.0648C56.332 53.5648 57.032 51.6648 56.832 49.6648C56.632 46.2648 55.732 42.9648 54.232 39.9648C52.532 36.4648 50.532 33.0648 48.232 29.8648L47.732 29.2648C47.532 29.0648 47.432 28.8648 47.232 28.6648L46.232 27.3648L45.732 26.7648C45.532 26.5648 45.432 26.3648 45.232 26.1648C43.132 23.5648 40.832 20.9648 38.432 18.5648C36.032 16.1648 33.532 13.8648 30.932 11.6648L29.932 12.5648Z" fill="#0ECAD4"/>
<path fill-rule="evenodd" clip-rule="evenodd" d="M39.5995 35.4917C41.3203 33.6924 42.9523 31.8044 44.5328 29.8647C44.8328 30.2647 45.1328 30.6647 45.4328 30.9647C43.9076 32.853 42.277 34.6886 40.5792 36.4713L39.5995 35.4917ZM35.6118 39.3855C33.7078 41.1625 31.7481 42.8972 29.7328 44.4647L29.1328 44.9647L28.5327 45.4647C28.3918 45.5705 28.2509 45.6886 28.1056 45.8104C27.8385 46.0342 27.5566 46.2705 27.2328 46.4647L26.6328 46.8647L26.0327 47.2647C23.0327 49.3647 19.9327 51.2647 16.5327 52.8647C13.7327 54.2647 10.6328 55.0647 7.43272 55.2647C5.83272 55.3647 4.23272 54.8647 3.03272 53.7647C0.53272 51.1647 1.43272 45.5647 4.93272 38.8647L3.73272 37.8647C-0.167281 45.3647 -1.06728 51.6647 2.03272 54.8647C3.53272 56.1647 5.43272 56.8647 7.43272 56.7647C10.8328 56.5647 14.1328 55.6647 17.1328 54.1647C20.6328 52.4647 24.0327 50.4647 27.2328 48.1647L27.8328 47.6647L28.4327 47.1647L29.7328 46.1647L30.4327 45.7647L31.0327 45.2647C32.9937 43.7396 34.8491 42.1089 36.6374 40.4111L35.6118 39.3855Z" fill="#0ECAD4"/>
<path fill-rule="evenodd" clip-rule="evenodd" d="M43.4609 44.707L35.4609 36.707L36.8751 35.2927L44.8751 43.2927L43.4609 44.707Z" fill="#AC9AEA"/>
</g>
<defs>
<clipPath id="clip0_6620_29104">
<rect width="62" height="57" fill="white" transform="translate(0.167969)"/>
</clipPath>
</defs>
</svg>
