<svg width="65" height="64" viewBox="0 0 65 64" fill="none" xmlns="http://www.w3.org/2000/svg">
<path d="M39.834 1.08472H25.834V16.2712H39.834V1.08472Z" stroke="#0ECAD4" stroke-width="2" stroke-miterlimit="10" stroke-linecap="square"/>
<path d="M32.834 22.7797V40.1356" stroke="#7E5CEF" stroke-width="2" stroke-miterlimit="10" stroke-linecap="square"/>
<path d="M9.83398 40.1356V31.4576H55.834V40.1356" stroke="#7E5CEF" stroke-width="2" stroke-miterlimit="10" stroke-linecap="square"/>
<path d="M9.83398 61.8305C13.7 61.8305 16.834 58.4309 16.834 54.2373C16.834 50.0436 13.7 46.644 9.83398 46.644C5.96799 46.644 2.83398 50.0436 2.83398 54.2373C2.83398 58.4309 5.96799 61.8305 9.83398 61.8305Z" stroke="#0ECAD4" stroke-width="2" stroke-miterlimit="10" stroke-linecap="square"/>
<path d="M32.834 61.8305C36.7 61.8305 39.834 58.4309 39.834 54.2373C39.834 50.0436 36.7 46.644 32.834 46.644C28.968 46.644 25.834 50.0436 25.834 54.2373C25.834 58.4309 28.968 61.8305 32.834 61.8305Z" stroke="#0ECAD4" stroke-width="2" stroke-miterlimit="10" stroke-linecap="square"/>
<path d="M55.834 61.8305C59.7 61.8305 62.834 58.4309 62.834 54.2373C62.834 50.0436 59.7 46.644 55.834 46.644C51.968 46.644 48.834 50.0436 48.834 54.2373C48.834 58.4309 51.968 61.8305 55.834 61.8305Z" stroke="#0ECAD4" stroke-width="2" stroke-miterlimit="10" stroke-linecap="square"/>
</svg>
