<svg width="64" height="64" viewBox="0 0 64 64" fill="none" xmlns="http://www.w3.org/2000/svg">
<path d="M25.2227 33.7107C25.2227 30.9198 27.5193 28.5264 30.407 28.5264C33.198 28.5264 35.5914 30.823 35.5914 33.7107C35.5914 36.4954 33.1917 38.8951 30.407 38.8951C27.6224 38.8951 25.2227 36.4954 25.2227 33.7107ZM25.7531 33.7107C25.7531 36.2825 27.8353 38.3647 30.407 38.3647C32.8609 38.3647 35.061 36.2909 35.061 33.7107C35.061 31.139 32.9788 29.0568 30.407 29.0568C27.8353 29.0568 25.7531 31.139 25.7531 33.7107Z" fill="#7E5CEF" stroke="#7E5CEF"/>
<path d="M22.8636 46.7193C28.2201 49.7801 34.8883 49.3428 39.6981 45.5168C39.2608 45.1889 38.8236 44.8609 38.3863 44.4237C34.1231 47.7031 28.3294 48.0311 23.6288 45.2982C17.1793 41.5815 14.993 33.3829 18.7097 27.0426C20.4587 23.9818 23.4102 21.6862 26.799 20.8117C27.8921 20.4837 29.0946 20.3744 30.297 20.3744C37.7304 20.2651 43.7428 26.2774 43.7428 33.7108C43.7428 34.1481 43.7428 34.5853 43.6334 35.0226C43.8521 35.0226 43.9614 35.1319 44.18 35.1319C44.508 35.2412 44.8359 35.3506 45.1638 35.4599C46.1477 27.2613 40.2447 19.7185 32.0461 18.7347C23.8475 17.7509 16.3048 23.6539 15.3209 31.8525C14.665 37.8648 17.6165 43.6585 22.8636 46.7193Z" fill="#0ECAD4"/>
<path opacity="0.55" d="M19.1487 14.1434C9.96623 19.3905 5.70295 30.322 8.76376 40.3789C8.87308 40.3789 8.87308 40.2696 8.98239 40.2696C9.41965 40.051 9.85691 39.8324 10.2942 39.723C7.01473 28.6823 13.4643 16.9856 24.5051 13.8155C35.5459 10.6453 47.2425 16.9856 50.4127 28.0264C53.5828 39.0672 47.2425 50.7638 36.2018 53.934C29.0963 56.0109 21.4443 54.1526 15.9785 49.1241C15.6506 49.5614 15.2133 49.8893 14.6668 50.2173C23.7399 58.8531 38.0601 58.5252 46.696 49.4521C55.3318 40.3789 55.0039 26.0587 45.9308 17.4228C38.8253 10.4267 27.8938 9.11492 19.1487 14.1434Z" fill="#0ECAD4"/>
<path opacity="0.25" d="M36.0907 3.86792C36.0907 3.97723 36.0907 4.08655 36.0907 4.08655C36.0907 4.52381 35.9814 4.96107 35.8721 5.39833C51.3948 8.56845 61.561 23.6539 58.5002 39.1766C55.4394 54.6993 40.354 64.8655 24.722 61.8047C9.08996 58.7439 -0.85768 43.6585 2.20313 28.1358C4.38943 16.6577 13.3532 7.80325 24.722 5.50764C24.6127 5.07038 24.6127 4.63312 24.6127 4.19586C24.6127 4.08655 24.6127 3.97723 24.6127 3.97723C8.10613 7.03805 -2.60672 22.8887 0.563411 39.3952C3.73354 55.9017 19.5842 66.6146 36.0907 63.4445C52.5972 60.2743 63.3101 44.4237 60.1399 27.9172C57.735 15.7832 48.2246 6.16353 36.0907 3.86792Z" fill="#0ECAD4"/>
<path opacity="0.25" d="M34.4526 3.53993C34.1246 1.35363 32.157 -0.286089 29.8614 0.0418549C28.003 0.260484 26.5819 1.68158 26.3633 3.53993C26.3633 3.75856 26.3633 3.86787 26.3633 4.0865C26.3633 4.41444 26.4726 4.8517 26.4726 5.17965C27.0192 7.36594 29.3148 8.67772 31.5011 8.02183C32.8128 7.69389 33.906 6.60074 34.3433 5.28896C34.4526 4.96102 34.4526 4.52376 34.5619 4.19582C34.4526 3.97719 34.4526 3.75856 34.4526 3.53993ZM30.4079 6.60074C29.4241 6.60074 28.5496 5.94485 28.1123 5.07033C28.003 4.74239 27.8937 4.41444 27.8937 4.19582C27.8937 3.97719 27.8937 3.75856 28.003 3.43061C28.4403 2.11883 29.752 1.46295 31.0638 1.79089C31.829 2.00952 32.4849 2.66541 32.7035 3.43061C32.8128 3.64924 32.8129 3.86787 32.8129 4.19582C32.8129 4.52376 32.7035 4.8517 32.5942 5.07033C32.2663 5.94485 31.3918 6.60074 30.4079 6.60074Z" fill="#0ECAD4"/>
<path opacity="0.55" d="M15.4304 43.2212C14.8838 42.2374 14.0093 41.5815 12.9161 41.3629C12.5882 41.2535 12.1509 41.2535 11.823 41.2535C11.495 41.2535 11.1671 41.2535 10.8392 41.3629C10.5112 41.4722 10.0739 41.5815 9.74601 41.8001C9.63669 41.9094 9.41806 42.0187 9.30875 42.1281C7.66903 43.3305 7.23177 45.6261 8.2156 47.3752C8.76217 48.359 9.63669 49.0149 10.7298 49.2335C11.0578 49.3428 11.495 49.3428 11.823 49.3428C12.4789 49.3428 13.0254 49.2335 13.572 48.9056L13.9 48.7963C14.3372 48.5776 14.6652 48.2497 14.8838 47.9217C15.3211 47.4845 15.649 46.9379 15.7583 46.282C15.9769 45.2982 15.8676 44.205 15.4304 43.2212ZM13.0254 47.3752C12.8068 47.4845 12.6975 47.5938 12.4789 47.5938C12.2602 47.7031 12.0416 47.7031 11.823 47.7031C11.6044 47.7031 11.3857 47.7031 11.1671 47.5938C9.85532 47.2658 9.09012 45.9541 9.41806 44.6423C9.52738 44.3144 9.74601 43.8771 9.96464 43.6585C10.074 43.4398 10.2926 43.3305 10.5112 43.2212C10.8392 43.1119 11.0578 43.0026 11.3857 42.8933C11.495 42.8933 11.6044 42.8933 11.7137 42.8933C11.9323 42.8933 12.1509 42.8933 12.3696 43.0026C13.0254 43.1119 13.572 43.5491 13.9 44.0957C14.2279 44.6423 14.3372 45.2982 14.1186 45.9541C14.0093 46.282 13.9 46.5006 13.7907 46.7193C13.6813 46.9379 13.3534 47.1565 13.0254 47.3752Z" fill="#0ECAD4"/>
<path d="M46.2576 38.5206C45.9296 37.974 45.4924 37.5368 44.9458 37.0995C44.6178 36.8809 44.2899 36.6622 43.8526 36.5529C43.7433 36.5529 43.634 36.4436 43.4154 36.4436C43.1967 36.4436 42.9781 36.4436 42.7595 36.4436C40.4639 36.4436 38.7148 38.302 38.7148 40.4882C38.7148 41.2535 38.9335 41.9093 39.2614 42.5652C39.3707 42.7839 39.5894 43.0025 39.6987 43.2211C40.0266 43.6584 40.4639 43.9863 41.0105 44.205C41.557 44.4236 42.2129 44.6422 42.7595 44.6422C45.0551 44.6422 46.8041 42.7839 46.8041 40.4882C46.9134 39.9417 46.6948 39.1765 46.2576 38.5206ZM45.1644 41.2535C44.8365 42.3466 43.8526 43.1118 42.7595 43.1118C41.9943 43.1118 41.2291 42.6745 40.7918 42.128C40.7918 42.0187 40.6825 42.0187 40.6825 41.9093C40.0266 40.7069 40.3546 39.2858 41.557 38.5206C41.885 38.302 42.3222 38.1926 42.7595 38.1926H42.9781C43.0874 38.1926 43.3061 38.1926 43.4154 38.1926C44.7272 38.5206 45.4924 39.8324 45.1644 41.2535Z" fill="#0ECAD4"/>
</svg>
