<svg width="65" height="64" viewBox="0 0 65 64" fill="none" xmlns="http://www.w3.org/2000/svg">
<path d="M32.168 64C14.5572 64 0.167969 49.6941 0.167969 31.9462C0.167969 14.1983 14.5572 0 32.168 0C49.7787 0 64.168 14.3059 64.168 32.0538C64.168 49.8017 49.7787 64 32.168 64ZM32.168 1.61345C15.5237 1.61345 1.88609 15.2739 1.88609 31.9462C1.88609 48.6185 15.5237 62.279 32.168 62.279C48.8123 62.279 62.4498 48.6185 62.4498 31.9462C62.4498 15.2739 48.9196 1.61345 32.168 1.61345Z" fill="#0ECAD4"/>
<path d="M42.7986 23.0185L42.1543 24.3092L42.906 22.9109L42.7986 23.0185Z" fill="#0ECAD4"/>
<path opacity="0.55" d="M10.7979 39.7983C10.5831 39.0454 10.261 38.2924 10.1536 37.6471C9.93884 37.0017 9.83145 36.2487 9.72407 35.4958C9.61669 34.7429 9.50931 33.9899 9.50931 33.237C9.29454 29.6874 9.93884 26.1378 11.4422 22.8034C13.912 17.2101 18.3147 12.9076 24.006 10.6487C26.6905 9.57312 29.4825 9.0353 32.2744 9.0353C35.3885 9.0353 38.5026 9.68068 41.4019 10.9714C46.9858 13.4454 51.2811 17.8555 53.5362 23.5563C54.7174 26.7832 55.1469 30.0101 54.9321 33.237C54.9321 33.9899 54.8247 34.6353 54.7174 35.3882C54.61 36.1412 54.5026 36.7866 54.2878 37.4319C54.0731 38.1849 53.8583 38.9378 53.6435 39.6908H52.8919H52.1402H51.2811H40.9724C40.9724 39.9059 40.9724 40.2286 40.9724 40.5513C40.9724 40.874 40.9724 41.0891 40.9724 41.4118H51.2811H52.1402H52.9992H54.61H54.8247L55.0395 40.874C55.1469 40.5513 55.2543 40.121 55.469 39.6908C55.6838 38.9378 55.8986 38.2924 56.1133 37.5395C57.2945 32.6992 56.9724 27.7513 55.1469 23.0185C52.5697 16.995 47.9523 12.1546 42.0462 9.57312C38.9321 8.1748 35.6033 7.52942 32.2744 7.52942C29.2677 7.52942 26.261 8.06723 23.3617 9.25043C17.2409 11.6168 12.516 16.242 9.83145 22.2656C7.6838 27.2135 7.25427 32.484 8.43548 37.6471C8.65025 38.4 8.86501 39.153 9.07978 39.9059C9.18716 40.2286 9.29454 40.6588 9.40192 40.9815L9.61669 41.5193H9.83145H11.4422H12.3013H13.1603H23.469C23.469 41.3042 23.469 40.9815 23.469 40.6588C23.469 40.3361 23.469 40.121 23.469 39.7983H13.1603H12.3013H11.4422H10.7979Z" fill="#0ECAD4"/>
<path d="M42.2612 20.8672L41.7243 21.8353L41.5096 22.1579L34.9592 33.8823C34.1002 33.5596 33.1337 33.3445 32.1673 33.3445C28.4089 33.3445 25.4022 36.1411 24.9727 39.7983C24.9727 40.0134 24.9727 40.3361 24.9727 40.6588C24.9727 40.9815 24.9727 41.1966 24.9727 41.5193C25.4022 45.1764 28.4089 47.9731 32.1673 47.9731C35.9257 47.9731 38.9324 45.1764 39.3619 41.5193C39.3619 41.3042 39.3619 40.9815 39.3619 40.6588C39.3619 40.3361 39.3619 40.121 39.3619 39.7983C39.1472 37.647 37.9659 35.8184 36.3552 34.7428L42.1539 24.4168L42.7982 23.126L42.9055 23.0184L43.6572 21.7277L42.2612 20.8672ZM37.8586 40.5512C37.8586 43.6705 35.2814 46.1445 32.2747 46.1445C29.268 46.1445 26.6908 43.563 26.6908 40.5512C26.6908 37.5395 29.268 34.9579 32.2747 34.9579C35.2814 34.9579 37.8586 37.4319 37.8586 40.5512Z" fill="#0ECAD4"/>
<path d="M42.9062 22.9109L43.6579 21.6201L42.9062 22.9109Z" fill="#0ECAD4"/>
<path d="M42.2624 20.8672L41.7246 21.8353L42.2624 20.8672Z" fill="#0ECAD4"/>
<path opacity="0.25" d="M15.435 27.5976L14.9496 27.233C15.0133 27.1587 15.0796 27.0827 15.1479 27.0046L15.1542 26.9973C15.2225 26.9191 15.2928 26.8386 15.3631 26.7565L15.8065 27.1603C15.7477 27.2305 15.6878 27.3005 15.6263 27.3724L15.6224 27.377C15.5614 27.4483 15.4987 27.5215 15.435 27.5976Z" fill="#7E5CEF" stroke="#7E5CEF"/>
<path d="M20.5607 22.8942L20.4881 22.9306L20.4307 22.988C20.3799 23.039 20.3294 23.0815 20.2767 23.1195L19.883 22.5936C20.0793 22.4634 20.2905 22.3316 20.5109 22.1972L20.8349 22.7246C20.8156 22.7372 20.7974 22.7494 20.7803 22.7608L20.7754 22.7641C20.6947 22.8179 20.6373 22.8558 20.5607 22.8942Z" fill="#7E5CEF" stroke="#7E5CEF"/>
<path opacity="0.55" d="M17.7471 25.2468L17.6714 25.3226L17.1993 24.8497C17.3737 24.6818 17.5361 24.5354 17.6905 24.4182L18.1364 24.9094C18.0133 25.0081 17.8686 25.1251 17.7471 25.2468Z" fill="#7E5CEF" stroke="#7E5CEF"/>
<path d="M24.0636 21.0384L24 21.0596L23.9442 21.0968C23.8154 21.1829 23.6819 21.2507 23.5154 21.3277C23.4712 21.3481 23.4232 21.3698 23.3722 21.3929C23.3018 21.4248 23.2256 21.4592 23.1455 21.4966L22.8685 20.9814C25.6865 19.6485 28.785 18.8933 32.1682 18.8933C34.9099 18.8933 37.5657 19.4431 40.0506 20.3758L39.7748 20.8889C37.377 19.9994 34.871 19.5068 32.1682 19.5068L32.1475 19.5068C31.5275 19.5067 30.7582 19.5067 30.0815 19.6153C29.9357 19.6211 29.7807 19.6523 29.6741 19.6738C29.6672 19.6752 29.6604 19.6765 29.6539 19.6778C29.5028 19.7081 29.4232 19.7219 29.3763 19.7219H29.3146L29.2548 19.7369C29.0741 19.7821 28.8892 19.8059 28.6699 19.8333L28.6583 19.8348C28.4671 19.8587 28.2482 19.8861 28.024 19.9381C27.6616 19.95 27.3149 20.0605 27.0363 20.1533C26.5669 20.1666 26.2052 20.2874 25.9037 20.3881L25.8891 20.393L24.9226 20.7157C24.7476 20.7741 24.6019 20.8325 24.4693 20.8856L24.4655 20.8872C24.3306 20.9412 24.209 20.9898 24.0636 21.0384Z" fill="#7E5CEF" stroke="#7E5CEF"/>
</svg>
