<svg width="65" height="65" viewBox="0 0 65 65" fill="none" xmlns="http://www.w3.org/2000/svg">
<g clip-path="url(#clip0_6620_29027)">
<path d="M25.2105 2.74561H23.6621V12.8509H25.2105V2.74561Z" fill="#7E5CEF"/>
<path d="M38.2183 2.74561H36.6699V12.8509H38.2183V2.74561Z" fill="#7E5CEF"/>
<path opacity="0.25" d="M21.6382 38.3986H20.0898V40.0828H21.6382V38.3986Z" fill="#7E5CEF"/>
<path opacity="0.55" d="M21.6382 41.767H20.0898V43.4512H21.6382V41.767Z" fill="#7E5CEF"/>
<path d="M20.0905 48.5038V58.6091H5.43242L10.1808 53.781L9.04533 52.5459L2.23242 59.3951L9.04533 66.2442L10.1808 65.1214L5.43242 60.2933H20.0905H21.6389V48.5038H20.0905Z" fill="#7E5CEF"/>
<path d="M21.6382 45.1354H20.0898V46.8196H21.6382V45.1354Z" fill="#7E5CEF"/>
<path opacity="0.25" d="M42.2828 38.3986H40.7344V40.0828H42.2828V38.3986Z" fill="#7E5CEF"/>
<path opacity="0.55" d="M42.2828 41.767H40.7344V43.4512H42.2828V41.767Z" fill="#7E5CEF"/>
<path d="M53.3279 52.5459L52.1924 53.781L57.0441 58.6091H42.2828V48.5038H40.7344V58.6091V60.2933H42.2828H57.0441L52.1924 65.1214L53.3279 66.2442L60.1408 59.3951L53.3279 52.5459Z" fill="#7E5CEF"/>
<path d="M42.2828 45.1354H40.7344V46.8196H42.2828V45.1354Z" fill="#7E5CEF"/>
<path opacity="0.55" d="M31.9625 61.1916H30.4141V62.8758H31.9625V61.1916Z" fill="#7E5CEF"/>
<path d="M31.2398 26.8339L24.8398 34.1321L25.9753 35.3672L30.414 30.2023V44.3497V56.1391H31.9624V51.6479V30.2023L36.4011 35.3672L37.5366 34.1321L31.2398 26.8339Z" fill="#7E5CEF"/>
<path d="M31.9625 57.8232H30.4141V59.5074H31.9625V57.8232Z" fill="#7E5CEF"/>
<path fill-rule="evenodd" clip-rule="evenodd" d="M17.7793 14.5351H38.9406H44.1019V26.6614C44.1019 33.2438 39.9133 38.8806 34.233 40.4879V38.7114C39.0759 37.1455 42.5535 32.2634 42.5535 26.5491V16.2193H19.3277V26.5491C19.3277 32.5489 22.9665 37.4984 28.0394 38.8632V40.5916C22.1612 39.1374 17.7793 33.394 17.7793 26.6614V14.5351Z" fill="#0ECAD4"/>
</g>
<defs>
<clipPath id="clip0_6620_29027">
<rect width="64" height="64" fill="white" transform="translate(0.167969 0.5)"/>
</clipPath>
</defs>
</svg>
